<svg preserveAspectRatio="none" width="100%" height="100%" overflow="visible" style="display: block;" viewBox="0 0 44 44" fill="none" xmlns="http://www.w3.org/2000/svg">
<g id="Logomark">
<path id="Intersect" d="M15.7143 31.4286C24.393 31.4286 31.4286 24.393 31.4286 15.7143C31.4286 14.7307 31.3382 13.7682 31.1653 12.8347C30.2318 12.6618 29.2693 12.5714 28.2857 12.5714C19.607 12.5714 12.5714 19.607 12.5714 28.2857C12.5714 29.2693 12.6618 30.2318 12.8347 31.1653C13.7682 31.3382 14.7307 31.4286 15.7143 31.4286Z" fill="var(--fill-0, #175CD3)"/>
<path id="Circle" fill-rule="evenodd" clip-rule="evenodd" d="M12.8347 31.1653C5.53118 29.8127 0 23.4095 0 15.7143C0 7.03553 7.03553 0 15.7143 0C23.4095 0 29.8128 5.53118 31.1653 12.8347C30.2318 12.6618 29.2693 12.5714 28.2857 12.5714C19.607 12.5714 12.5714 19.607 12.5714 28.2857C12.5714 29.2693 12.6618 30.2318 12.8347 31.1653Z" fill="var(--fill-0, #1570EF)"/>
<path id="Circle_2" fill-rule="evenodd" clip-rule="evenodd" d="M15.7142 31.4285C24.393 31.4285 31.4285 24.393 31.4285 15.7142C31.4285 14.7306 31.3381 13.7681 31.1653 12.8346C38.4688 14.1872 43.9999 20.5905 43.9999 28.2856C43.9999 36.9644 36.9644 43.9999 28.2857 43.9999C20.5905 43.9999 14.1872 38.4688 12.8346 31.1653C13.7681 31.3381 14.7306 31.4285 15.7142 31.4285Z" fill="var(--fill-0, #2E90FA)"/>
</g>
</svg>
