<svg preserveAspectRatio="none" width="100%" height="100%" overflow="visible" style="display: block;" viewBox="0 0 103 27" fill="none" xmlns="http://www.w3.org/2000/svg">
<g id="Logotype">
<path d="M17.9474 7.14915C17.321 2.625 13.8409 0 9.3267 0C4.0071 0 0 3.87784 0 10.4602C0 17.0327 3.95739 20.9205 9.3267 20.9205C14.169 20.9205 17.3807 17.7884 17.9474 13.9006L14.2287 13.8807C13.7614 16.267 11.8125 17.6094 9.37642 17.6094C6.07528 17.6094 3.70881 15.1335 3.70881 10.4602C3.70881 5.86648 6.0554 3.31108 9.38636 3.31108C11.8622 3.31108 13.8011 4.71307 14.2287 7.14915H17.9474Z" fill="var(--fill-0, #181D27)"/>
<path d="M25.5614 20.9503C27.9577 20.9503 29.3896 19.8267 30.0458 18.544H30.1651V20.642H33.6253V10.4205C33.6253 6.38352 30.3342 5.17046 27.4208 5.17046C24.2092 5.17046 21.7432 6.60227 20.9478 9.38637L24.3086 9.86364C24.6665 8.8196 25.6807 7.92472 27.4407 7.92472C29.1111 7.92472 30.0259 8.77983 30.0259 10.2813V10.3409C30.0259 11.375 28.9421 11.4247 26.2475 11.7131C23.2844 12.0313 20.4506 12.9162 20.4506 16.3565C20.4506 19.3594 22.6481 20.9503 25.5614 20.9503ZM26.4961 18.3054C24.9947 18.3054 23.9208 17.6193 23.9208 16.2969C23.9208 14.9148 25.1239 14.3381 26.7347 14.1094C27.6793 13.9801 29.5685 13.7415 30.0359 13.3636V15.1634C30.0359 16.8636 28.6637 18.3054 26.4961 18.3054Z" fill="var(--fill-0, #181D27)"/>
<path d="M44.8711 5.36932H41.8583V1.71023H38.2589V5.36932H36.0913V8.15341H38.2589V16.6449C38.239 19.5185 40.327 20.9304 43.0316 20.8509C44.0557 20.821 44.7617 20.6222 45.1495 20.4929L44.543 17.679C44.3441 17.7287 43.9364 17.8182 43.489 17.8182C42.5841 17.8182 41.8583 17.5 41.8583 16.0483V8.15341H44.8711V5.36932Z" fill="var(--fill-0, #181D27)"/>
<path d="M52.2763 20.9503C54.6726 20.9503 56.1044 19.8267 56.7606 18.544H56.88V20.642H60.3402V10.4205C60.3402 6.38352 57.049 5.17046 54.1356 5.17046C50.924 5.17046 48.4581 6.60227 47.6626 9.38637L51.0234 9.86364C51.3814 8.8196 52.3956 7.92472 54.1555 7.92472C55.826 7.92472 56.7408 8.77983 56.7408 10.2813V10.3409C56.7408 11.375 55.6569 11.4247 52.9623 11.7131C49.9993 12.0313 47.1655 12.9162 47.1655 16.3565C47.1655 19.3594 49.3629 20.9503 52.2763 20.9503ZM53.2109 18.3054C51.7095 18.3054 50.6356 17.6193 50.6356 16.2969C50.6356 14.9148 51.8388 14.3381 53.4496 14.1094C54.3942 13.9801 56.2834 13.7415 56.7507 13.3636V15.1634C56.7507 16.8636 55.3785 18.3054 53.2109 18.3054Z" fill="var(--fill-0, #181D27)"/>
<path d="M67.5589 0.278409H63.9595V20.642H67.5589V0.278409Z" fill="var(--fill-0, #181D27)"/>
<path d="M77.9222 20.9403C82.3966 20.9403 85.2404 17.7884 85.2404 13.0653C85.2404 8.33239 82.3966 5.17046 77.9222 5.17046C73.4478 5.17046 70.604 8.33239 70.604 13.0653C70.604 17.7884 73.4478 20.9403 77.9222 20.9403ZM77.9421 18.0568C75.4662 18.0568 74.2532 15.8494 74.2532 13.0554C74.2532 10.2614 75.4662 8.02415 77.9421 8.02415C80.3782 8.02415 81.5912 10.2614 81.5912 13.0554C81.5912 15.8494 80.3782 18.0568 77.9421 18.0568Z" fill="var(--fill-0, #181D27)"/>
<path d="M94.9375 26.6875C99.0639 26.6875 102.107 24.7983 102.107 20.8906V5.36932H98.5568V7.89489H98.3579C97.8111 6.79119 96.6676 5.17046 93.973 5.17046C90.4432 5.17046 87.669 7.93466 87.669 12.956C87.669 17.9375 90.4432 20.4233 93.963 20.4233C96.5781 20.4233 97.8011 19.0213 98.3579 17.8977H98.5369V20.7912C98.5369 23.0384 97.0454 23.9631 94.9971 23.9631C92.8295 23.9631 91.875 22.9389 91.4375 22.044L88.196 22.8295C88.8522 24.9673 91.0497 26.6875 94.9375 26.6875ZM94.9673 17.5994C92.5909 17.5994 91.338 15.75 91.338 12.9361C91.338 10.1619 92.571 8.12358 94.9673 8.12358C97.2841 8.12358 98.5568 10.0426 98.5568 12.9361C98.5568 15.8494 97.2642 17.5994 94.9673 17.5994Z" fill="var(--fill-0, #181D27)"/>
</g>
</svg>
