<svg preserveAspectRatio="none" width="100%" height="100%" overflow="visible" style="display: block;" viewBox="0 0 130 27" fill="none" xmlns="http://www.w3.org/2000/svg">
<g id="Logotype">
<path d="M22.428 24.136C21.7933 24.92 21.0187 25.5173 20.104 25.928C19.208 26.3387 18.2187 26.544 17.136 26.544C15.68 26.544 14.364 26.2267 13.188 25.592C12.012 24.976 10.668 23.8747 9.156 22.288C7.38267 22.064 5.796 21.4947 4.396 20.58C3.01467 19.6653 1.932 18.4893 1.148 17.052C0.382667 15.596 0 13.9907 0 12.236C0 10.3133 0.457333 8.58667 1.372 7.056C2.30533 5.50667 3.584 4.29333 5.208 3.416C6.85067 2.53867 8.68933 2.1 10.724 2.1C12.7587 2.1 14.588 2.53867 16.212 3.416C17.836 4.29333 19.1147 5.50667 20.048 7.056C20.9813 8.58667 21.448 10.3133 21.448 12.236C21.448 14.5133 20.804 16.5107 19.516 18.228C18.2467 19.9453 16.5573 21.14 14.448 21.812C14.9147 22.2973 15.3627 22.6427 15.792 22.848C16.24 23.072 16.716 23.184 17.22 23.184C18.4333 23.184 19.4973 22.6987 20.412 21.728L22.428 24.136ZM4.592 12.236C4.592 13.4493 4.85333 14.532 5.376 15.484C5.91733 16.436 6.65467 17.1827 7.588 17.724C8.52133 18.2467 9.56667 18.508 10.724 18.508C11.8813 18.508 12.9267 18.2467 13.86 17.724C14.7933 17.1827 15.5213 16.436 16.044 15.484C16.5853 14.532 16.856 13.4493 16.856 12.236C16.856 11.0227 16.5853 9.94 16.044 8.988C15.5213 8.036 14.7933 7.29867 13.86 6.776C12.9267 6.23467 11.8813 5.964 10.724 5.964C9.56667 5.964 8.52133 6.23467 7.588 6.776C6.65467 7.29867 5.91733 8.036 5.376 8.988C4.85333 9.94 4.592 11.0227 4.592 12.236Z" fill="var(--fill-0, #181D27)"/>
<path d="M39.725 6.972V22.036H35.581V20.244C35.0023 20.8973 34.3117 21.4013 33.509 21.756C32.7063 22.092 31.8383 22.26 30.905 22.26C28.9263 22.26 27.3583 21.6907 26.201 20.552C25.0437 19.4133 24.465 17.724 24.465 15.484V6.972H28.833V14.84C28.833 17.2667 29.8503 18.48 31.885 18.48C32.9303 18.48 33.7703 18.144 34.405 17.472C35.0397 16.7813 35.357 15.764 35.357 14.42V6.972H39.725Z" fill="var(--fill-0, #181D27)"/>
<path d="M50.9397 22.26C49.353 22.26 47.925 21.9333 46.6557 21.28C45.405 20.608 44.425 19.684 43.7157 18.508C43.0063 17.332 42.6517 15.9973 42.6517 14.504C42.6517 13.0107 43.0063 11.676 43.7157 10.5C44.425 9.324 45.405 8.40933 46.6557 7.756C47.925 7.084 49.353 6.748 50.9397 6.748C52.5263 6.748 53.945 7.084 55.1957 7.756C56.4463 8.40933 57.4263 9.324 58.1357 10.5C58.845 11.676 59.1997 13.0107 59.1997 14.504C59.1997 15.9973 58.845 17.332 58.1357 18.508C57.4263 19.684 56.4463 20.608 55.1957 21.28C53.945 21.9333 52.5263 22.26 50.9397 22.26ZM50.9397 18.676C52.0597 18.676 52.9743 18.3027 53.6837 17.556C54.4117 16.7907 54.7757 15.7733 54.7757 14.504C54.7757 13.2347 54.4117 12.2267 53.6837 11.48C52.9743 10.7147 52.0597 10.332 50.9397 10.332C49.8197 10.332 48.8957 10.7147 48.1677 11.48C47.4397 12.2267 47.0757 13.2347 47.0757 14.504C47.0757 15.7733 47.4397 16.7907 48.1677 17.556C48.8957 18.3027 49.8197 18.676 50.9397 18.676Z" fill="var(--fill-0, #181D27)"/>
<path d="M71.8353 21.308C71.406 21.6253 70.874 21.868 70.2393 22.036C69.6233 22.1853 68.97 22.26 68.2793 22.26C66.4873 22.26 65.0966 21.8027 64.1073 20.888C63.1366 19.9733 62.6513 18.6293 62.6513 16.856V10.668H60.3273V7.308H62.6513V3.64H67.0193V7.308H70.7713V10.668H67.0193V16.8C67.0193 17.4347 67.178 17.9293 67.4953 18.284C67.8313 18.62 68.298 18.788 68.8953 18.788C69.586 18.788 70.174 18.6013 70.6593 18.228L71.8353 21.308Z" fill="var(--fill-0, #181D27)"/>
<path d="M74.2873 6.972H78.6553V22.036H74.2873V6.972ZM76.4713 4.872C75.6686 4.872 75.0153 4.63867 74.5113 4.172C74.0073 3.70533 73.7553 3.12667 73.7553 2.436C73.7553 1.74533 74.0073 1.16667 74.5113 0.700001C75.0153 0.233334 75.6686 0 76.4713 0C77.2739 0 77.9273 0.224 78.4313 0.672001C78.9353 1.12 79.1873 1.68 79.1873 2.352C79.1873 3.08 78.9353 3.68667 78.4313 4.172C77.9273 4.63867 77.2739 4.872 76.4713 4.872Z" fill="var(--fill-0, #181D27)"/>
<path d="M97.4652 14.56C97.4652 14.616 97.4372 15.008 97.3812 15.736H85.9852C86.1905 16.6693 86.6758 17.4067 87.4412 17.948C88.2065 18.4893 89.1585 18.76 90.2972 18.76C91.0812 18.76 91.7718 18.648 92.3692 18.424C92.9852 18.1813 93.5545 17.808 94.0772 17.304L96.4012 19.824C94.9825 21.448 92.9105 22.26 90.1852 22.26C88.4865 22.26 86.9838 21.9333 85.6772 21.28C84.3705 20.608 83.3625 19.684 82.6532 18.508C81.9438 17.332 81.5892 15.9973 81.5892 14.504C81.5892 13.0293 81.9345 11.704 82.6252 10.528C83.3345 9.33333 84.2958 8.40933 85.5092 7.756C86.7412 7.084 88.1132 6.748 89.6252 6.748C91.0998 6.748 92.4345 7.06533 93.6292 7.7C94.8238 8.33467 95.7572 9.24933 96.4292 10.444C97.1198 11.62 97.4652 12.992 97.4652 14.56ZM89.6532 10.052C88.6638 10.052 87.8332 10.332 87.1612 10.892C86.4892 11.452 86.0785 12.2173 85.9292 13.188H93.3492C93.1998 12.236 92.7892 11.48 92.1172 10.92C91.4452 10.3413 90.6238 10.052 89.6532 10.052Z" fill="var(--fill-0, #181D27)"/>
<path d="M109.529 6.748C111.396 6.748 112.899 7.308 114.037 8.428C115.195 9.548 115.773 11.2093 115.773 13.412V22.036H111.405V14.084C111.405 12.8893 111.144 12.0027 110.621 11.424C110.099 10.8267 109.343 10.528 108.353 10.528C107.252 10.528 106.375 10.8733 105.721 11.564C105.068 12.236 104.741 13.244 104.741 14.588V22.036H100.373V6.972H104.545V8.736C105.124 8.10133 105.843 7.616 106.701 7.28C107.56 6.92533 108.503 6.748 109.529 6.748Z" fill="var(--fill-0, #181D27)"/>
<path d="M129.449 21.308C129.019 21.6253 128.487 21.868 127.853 22.036C127.237 22.1853 126.583 22.26 125.893 22.26C124.101 22.26 122.71 21.8027 121.721 20.888C120.75 19.9733 120.265 18.6293 120.265 16.856V10.668H117.941V7.308H120.265V3.64H124.633V7.308H128.385V10.668H124.633V16.8C124.633 17.4347 124.791 17.9293 125.109 18.284C125.445 18.62 125.911 18.788 126.509 18.788C127.199 18.788 127.787 18.6013 128.273 18.228L129.449 21.308Z" fill="var(--fill-0, #181D27)"/>
</g>
</svg>
