<svg preserveAspectRatio="none" width="100%" height="100%" overflow="visible" style="display: block;" viewBox="0 0 44 44" fill="none" xmlns="http://www.w3.org/2000/svg">
<g id="Logomark">
<path id="Isometric square" d="M13.2775 20.3182C14.0998 17.2499 17.2537 14.096 20.322 13.2738L39.4509 8.14741C42.5192 7.32515 44.34 9.14589 43.5177 12.2142L38.3913 31.3431C37.5691 34.4114 34.4152 37.5653 31.3469 38.3876L12.2179 43.5139C9.14964 44.3362 7.32889 42.5155 8.15116 39.4472L13.2775 20.3182Z" fill="var(--fill-0, #9E77ED)"/>
<path id="Isometric square_2" d="M5.60884 12.6493C6.4311 9.58108 9.585 6.42718 12.6533 5.60492L31.7823 0.478546C34.8505 -0.343718 36.6713 1.47703 35.849 4.5453L30.7227 23.6743C29.9004 26.7425 26.7465 29.8964 23.6782 30.7187L4.54923 35.8451C1.48096 36.6673 -0.339792 34.8466 0.482472 31.7783L5.60884 12.6493Z" fill="var(--fill-0, #6941C6)"/>
</g>
</svg>
